<svg width="24" height="25" viewBox="0 0 24 25" fill="none" xmlns="http://www.w3.org/2000/svg">
<g clip-path="url(#clip0_4_543)">
<path d="M22.3224 0.515625H1.75001C0.777784 0.515625 0 1.28982 0 2.25756V22.7737C0 23.7027 0.777784 24.5156 1.75001 24.5156H22.2446C23.2168 24.5156 23.9946 23.7414 23.9946 22.7737V2.21885C24.0724 1.28982 23.2946 0.515625 22.3224 0.515625ZM7.11672 20.9156H3.57781V9.49627H7.11672V20.9156ZM5.32782 7.90917C4.16114 7.90917 3.26669 6.98014 3.26669 5.85756C3.26669 4.73498 4.20003 3.80595 5.32782 3.80595C6.45561 3.80595 7.38895 4.73498 7.38895 5.85756C7.38895 6.98014 6.53338 7.90917 5.32782 7.90917ZM20.5335 20.9156H16.9946V15.3801C16.9946 14.064 16.9557 12.3221 15.1279 12.3221C13.2612 12.3221 12.989 13.793 12.989 15.264V20.9156H9.45007V9.49627H12.9112V11.0834H12.9501C13.4557 10.1543 14.5834 9.2253 16.3335 9.2253C19.9502 9.2253 20.6113 11.5479 20.6113 14.7221V20.9156H20.5335Z" fill="white"/>
</g>
<defs>
<clipPath id="clip0_4_543">
<rect width="24" height="24" fill="white" transform="translate(0 0.515625)"/>
</clipPath>
</defs>
</svg>
