<svg width="24" height="25" viewBox="0 0 24 25" fill="none" xmlns="http://www.w3.org/2000/svg">
<g clip-path="url(#clip0_4_550)">
<path d="M13.8943 0.516602C15.5417 0.519833 16.0121 0.533683 17.052 0.593037C18.3697 0.631747 19.2223 0.825295 19.9974 1.13497C20.7725 1.44465 21.4313 1.83175 22.0902 2.48981C22.749 3.14788 23.1753 3.80594 23.4466 4.61884C23.7178 5.43175 23.9504 6.32207 23.9891 7.56078C24.0279 8.87691 23.9504 9.30272 23.9504 12.593L23.9501 14.2489C23.95 14.3249 23.95 14.3984 23.9499 14.4698L23.9493 14.8718C23.9469 16.1923 23.9388 16.6421 23.9116 17.5092C23.8729 18.8253 23.6403 19.6769 23.3691 20.4511C23.0978 21.2253 22.6715 21.9221 22.0126 22.5801C21.3538 23.2382 20.695 23.664 19.8811 23.935C19.0673 24.2059 18.2534 24.4382 16.9358 24.4769C16.5844 24.4872 16.3019 24.4948 16.0141 24.5004L15.7961 24.5041C15.4272 24.5099 15.021 24.5127 14.4325 24.5142L14.0564 24.5149C13.9897 24.515 13.9208 24.5151 13.8497 24.5151L10.3208 24.515C8.50276 24.5125 8.06871 24.5001 7.01458 24.4382C5.69692 24.3995 4.84432 24.1672 4.06922 23.8963C3.29413 23.6253 2.59655 23.1995 1.93772 22.5414C1.27889 21.8834 0.852586 21.2253 0.581303 20.4124C0.31002 19.5995 0.0774924 18.7866 0.0387377 17.4705C0.0309868 17.2072 0.024786 16.9827 0.0198254 16.7656L0.0132759 16.4417C0.00694596 16.0792 0.00363028 15.694 0.0018935 15.1411L0.00102941 14.7881C0.000913147 14.7256 0.000809802 14.661 0.000717939 14.5944L0.000488281 11.8956C0.00515033 9.17454 0.0413214 8.78917 0.0774924 7.56078C0.116247 6.24465 0.31002 5.39304 0.620058 4.61884C0.891341 3.80594 1.31764 3.14788 1.97647 2.48981C2.6353 1.83175 3.29413 1.36723 4.10798 1.09626C4.92183 0.825295 5.73568 0.593037 7.05334 0.554328C7.9757 0.527231 8.42331 0.519102 9.73876 0.516663L13.8943 0.516602ZM14.0923 2.7228H10.0131C9.15961 2.724 8.653 2.72713 8.19369 2.73535L7.98397 2.73951C7.74067 2.74482 7.49772 2.75175 7.20835 2.76078C6.00696 2.79949 5.38688 3.03175 4.96058 3.18659C4.41802 3.41884 4.03047 3.6511 3.60417 4.07691C3.21662 4.46401 2.94534 4.88981 2.71281 5.43175C2.55779 5.89626 2.32526 6.51562 2.28651 7.67691C2.27747 7.96594 2.27053 8.20861 2.26522 8.45162L2.26105 8.6611C2.25345 9.08459 2.2502 9.54833 2.2488 10.2877L2.24806 10.8976C2.24801 10.9719 2.24797 11.0485 2.24793 11.1276L2.24775 17.3156C2.28651 18.5156 2.51904 19.135 2.67406 19.5608C2.94534 20.1027 3.17787 20.4898 3.60417 20.9156C3.99172 21.3414 4.41802 21.6124 4.96058 21.8447C5.42564 21.9995 6.04571 22.2317 7.20835 22.2705C8.06363 22.2972 8.53182 22.3054 9.78244 22.308L10.402 22.3088C10.4776 22.3089 10.5555 22.3089 10.6361 22.309L16.8583 22.3092C18.0597 22.2705 18.6797 22.0382 19.106 21.8834C19.6486 21.6124 20.0362 21.3801 20.4625 20.9543C20.8888 20.5672 21.16 20.1414 21.3926 19.5995C21.5476 19.135 21.7801 18.5156 21.8189 17.3543C21.8266 17.1066 21.8344 16.8929 21.8418 16.6839L21.8491 16.4753C21.8755 15.7082 21.8964 14.8717 21.8964 12.5156L21.8961 10.8976C21.896 10.8232 21.896 10.7512 21.8959 10.6814L21.8953 10.2877C21.8929 8.99381 21.8848 8.544 21.8576 7.67691C21.8189 6.47691 21.5863 5.85755 21.4313 5.43175C21.16 4.88981 20.9275 4.50271 20.5012 4.07691C20.1137 3.68981 19.6874 3.41884 19.1448 3.18659C18.6797 3.03175 18.0597 2.79949 16.897 2.76078C16.6077 2.75175 16.3647 2.74482 16.1214 2.73951L15.9117 2.73535C15.4524 2.72713 14.9458 2.724 14.0923 2.7228ZM12.0139 6.36078C15.4631 6.36078 18.2147 9.07046 18.2147 12.5156C18.2147 15.9608 15.3856 18.6705 12.0139 18.6705C8.64228 18.6705 5.85194 15.9608 5.85194 12.5156C5.85194 9.14788 8.56477 6.36078 12.0139 6.36078ZM12.0139 8.48981C9.80492 8.48981 7.98345 10.3092 7.98345 12.5156C7.98345 14.7221 9.76616 16.5414 12.0139 16.5414C14.2617 16.5414 16.0444 14.7608 16.0444 12.5156C16.0444 10.2705 14.2617 8.48981 12.0139 8.48981ZM18.486 4.65755C19.2779 4.65755 19.9199 5.2988 19.9199 6.08981C19.9199 6.88083 19.2779 7.52207 18.486 7.52207C17.694 7.52207 17.052 6.88083 17.052 6.08981C17.052 5.2988 17.694 4.65755 18.486 4.65755Z" fill="white"/>
</g>
<defs>
<clipPath id="clip0_4_550">
<rect width="24" height="24" fill="white" transform="translate(0 0.515625)"/>
</clipPath>
</defs>
</svg>
