<svg width="24" height="25" viewBox="0 0 24 25" fill="none" xmlns="http://www.w3.org/2000/svg">
<path d="M7.47097 22.6801C16.6065 22.6801 21.5613 15.1318 21.5613 8.58982C21.5613 8.43498 21.5613 8.16401 21.5226 7.93175C22.4903 7.23498 23.3419 6.34466 24 5.37692C23.071 5.80272 22.1419 6.03498 21.1742 6.15111C22.2194 5.53175 22.9935 4.56401 23.3419 3.40272C22.3742 3.94466 21.3677 4.37046 20.1677 4.60272C19.2387 3.63498 18 3.01562 16.5677 3.01562C13.8194 3.01562 11.5742 5.26079 11.5742 8.00917C11.5742 8.39627 11.6129 8.78337 11.6903 9.17046C7.70323 8.8995 4.06452 6.9253 1.5871 3.94466C1.16129 4.71885 0.929032 5.53175 0.929032 6.42208C0.929032 8.16401 1.81935 9.63498 3.17419 10.5253C2.36129 10.4866 1.5871 10.2543 0.929032 9.90595C0.929032 9.94466 0.929032 9.94466 0.929032 9.94466C0.929032 12.3059 2.63226 14.3576 4.87742 14.8221C4.45161 14.9382 3.9871 14.9769 3.63871 14.9769C3.32903 14.9769 2.98065 14.9382 2.70968 14.8608C3.36774 16.835 5.1871 18.2672 7.35484 18.3059C5.65161 19.6221 3.52258 20.435 1.23871 20.435C0.774194 20.5124 0.387097 20.435 0 20.3963C2.09032 21.8672 4.68387 22.6801 7.47097 22.6801Z" fill="white"/>
</svg>
