<svg width="24" height="25" viewBox="0 0 24 25" fill="none" xmlns="http://www.w3.org/2000/svg">
<g clip-path="url(#clip0_4_555)">
<path d="M22.6452 0.515625H1.35484C0.580645 0.515625 0 1.13498 0 1.87046V23.1608C0 23.935 0.619355 24.5156 1.35484 24.5156H12.8129V15.1866H9.71613V11.5866H12.8129V8.91562C12.8129 5.81885 14.671 4.11562 17.4581 4.11562C18.3871 4.11562 19.3161 4.15433 20.2452 4.27046V7.48337H18.3871C16.9161 7.48337 16.6065 8.18014 16.6065 9.2253V11.5092H20.129L19.6258 15.1479H16.529V24.3608H22.6452C23.4194 24.3608 24 23.7801 24 23.0059V1.87046C23.9613 1.09627 23.3419 0.515625 22.6452 0.515625Z" fill="white"/>
</g>
<defs>
<clipPath id="clip0_4_555">
<rect width="24" height="24" fill="white" transform="translate(0 0.515625)"/>
</clipPath>
</defs>
</svg>
